<?xml version="1.0" encoding="utf-8"?>
<!-- Generator: Adobe Illustrator 24.1.1, SVG Export Plug-In . SVG Version: 6.00 Build 0)  -->
<svg version="1.1" id="Layer_1" xmlns="http://www.w3.org/2000/svg" xmlns:xlink="http://www.w3.org/1999/xlink" x="0px" y="0px"
	 width="300px" height="300px" viewBox="0 0 300 300" style="enable-background:new 0 0 300 300;" xml:space="preserve">
<style type="text/css">
	.st0{fill:#3CB4E6;}
	.st1{fill:#FFFFFF;}
</style>
<g>
	<path class="st0" d="M300,150L300,150c0-2.5-0.1-5-0.2-7.5c0-0.8-0.1-1.7-0.2-2.5c-0.1-1.6-0.2-3.3-0.4-4.9c-0.1-1-0.2-2-0.3-3
		c-0.2-1.4-0.3-2.9-0.6-4.3c-0.2-1.1-0.3-2.1-0.5-3.2c-0.2-1.4-0.5-2.7-0.7-4c-0.2-1.1-0.5-2.2-0.7-3.3c-0.3-1.3-0.6-2.5-0.9-3.8
		c-0.3-1.1-0.6-2.2-0.9-3.3c-0.3-1.2-0.7-2.4-1-3.6c-0.3-1.1-0.7-2.2-1.1-3.3c-0.4-1.2-0.8-2.3-1.2-3.5c-0.4-1.1-0.8-2.2-1.2-3.3
		c-0.4-1.1-0.9-2.2-1.3-3.3c-0.5-1.1-0.9-2.2-1.4-3.3c-0.5-1.1-0.9-2.2-1.4-3.2c-0.5-1.1-1-2.2-1.5-3.3c-0.5-1-1-2-1.5-3.1
		c-0.6-1.1-1.1-2.2-1.7-3.2c-0.5-1-1.1-1.9-1.7-2.9c-0.6-1.1-1.2-2.1-1.9-3.2c-0.6-0.9-1.2-1.9-1.8-2.8c-0.7-1.1-1.4-2.1-2.1-3.1
		c-0.6-0.9-1.2-1.7-1.9-2.6c-0.8-1-1.5-2.1-2.2-3.1c-0.6-0.8-1.3-1.6-1.9-2.5c-0.8-1-1.6-2-2.5-3.1c-0.6-0.8-1.3-1.5-1.9-2.2
		c-0.9-1-1.8-2-2.7-3.1c0,0-0.1-0.1-0.2-0.2l0,0c-11.2-12.1-24.3-22.5-39-30.4l0,0c0,0,0,0,0,0c-2.4-1.3-4.9-2.6-7.4-3.7
		c-0.8-0.4-1.5-0.7-2.3-1.1c-1.8-0.8-3.6-1.6-5.4-2.3c-0.9-0.4-1.8-0.7-2.7-1.1c-1.8-0.7-3.7-1.4-5.6-2c-0.8-0.3-1.7-0.6-2.5-0.8
		c-2.6-0.8-5.3-1.6-8-2.3c0,0-0.1,0-0.1,0c-2.7-0.7-5.5-1.3-8.3-1.9c-0.9-0.2-1.7-0.3-2.6-0.5c-2-0.3-4-0.7-6-0.9
		c-1-0.2-2-0.3-3-0.4c-2-0.2-4-0.4-6.1-0.6c-0.9-0.1-1.8-0.2-2.7-0.2C155.9,0.1,153,0,150,0c-27.8,0-53.7,7.6-76,20.7
		c-0.7,0.4-1.5,0.8-2.2,1.3c-7.4,4.6-14.4,9.8-20.9,15.5c-2.3,2.1-4.7,4.2-6.9,6.4c-2.2,2.2-4.3,4.5-6.4,6.9
		c-4.3,4.8-8.3,9.9-11.9,15.3c-0.2,0.2-0.3,0.5-0.5,0.7c-1.9,2.8-3.6,5.7-5.3,8.6c-0.9,1.7-1.9,3.4-2.8,5
		c-6.3,12.1-11.1,25-13.9,38.7c-0.2,0.9-0.3,1.8-0.5,2.7C0.9,131,0,140.4,0,150l0,0l0,0c0,82.9,67.2,150,150,150
		c2.6,0,5.2-0.1,7.7-0.2c16.4-0.8,32-4.3,46.5-10c2.6-1,5.2-2.1,7.7-3.3c4.8-2.2,9.5-4.6,14.1-7.3c1.7-1,3.4-2.1,5.1-3.2
		c4.4-2.8,8.6-5.9,12.7-9.1c4.3-3.4,8.4-7,12.2-10.9c2-2,3.9-4,5.7-6c2.5-2.8,4.9-5.7,7.2-8.7c2.2-2.8,4.3-5.7,6.2-8.8
		c2-3,3.9-6.2,5.7-9.3C293,201.5,300,176.6,300,150C300,150,300,150,300,150C300,150,300,150,300,150z"/>
	<g>
		<g>
			<path class="st1" d="M240.6,87.2c15.7-14,28.1-53,14.2-73.4c-20.1-29.6-67.1,46.4-73.6,59c-1.6-4.5-5.5-10.3-10.2-11.5
				c-3.6,3.6-3.7,11-2.7,15.2C154.6,63.9,98,39.2,78.7,54.2c-3.8,2.9-2.9,8.8-2.9,8.8c2.3,21.1,25.2,56.6,46.8,54.8
				c-16.9,23.1-19.1,63.1,24,62.2c29.8-0.7,33.3-27.4,39.1-51.6c1.8,10.6,7.3,27.4,12.2,33.2c2-8.6-1.6-24.3-5.6-34.7
				c18.2,20.1,44,47.4,69.4,17.3C283,118.9,265.3,99.7,240.6,87.2z"/>
		</g>
	</g>
	<g>
		<path class="st1" d="M55.6,233v1.4c0,4.3,1.2,7.1,6.1,7.1c2.8,0,5.5-1.8,5.5-5.7c0-4.2-2.1-5.7-8.2-7.8c-8.2-2.8-12-6.2-12-13.9
			c0-8.9,5.5-13.5,14.2-13.5c8.2,0,14.2,3.6,14.2,12.3v1.3h-8.9c0-4.3-1.5-6.8-5-6.8c-4.2,0-5.3,2.6-5.3,5.3c0,2.8,0.8,4.6,4.8,6.2
			l7.1,3.1c7,3,8.7,6.5,8.7,12.1c0,9.7-5.9,14.1-16,14.1c-10.5,0-14.6-4.9-14.6-13.4V233C46.3,233,55.6,233,55.6,233z"/>
		<path class="st1" d="M108.3,201.4v7.6h-10v38.3H89V209H79v-7.6H108.3z"/>
		<path class="st1" d="M112.5,201.4h13.8l6.5,32.4h0.1l6.6-32.4h13.7v45.9h-8.5v-36.6h-0.1l-8.2,36.6h-7.2l-8.2-36.6H121v36.6h-8.5
			V201.4z"/>
		<path class="st1" d="M168.2,221.6h2.8c4.8,0,7-3.5,7-8.1c0-4.2-1.5-7.6-5.9-7.6c-6,0-6.5,5.5-6.5,8.9h-5.7
			c0-7.8,3.7-13.1,12.1-13.1c9.5,0,11.7,6.8,11.7,11.8c0,4.6-2.3,8.6-7.1,9.8v0.1c5.1,1,8.4,4.3,8.4,10.6c0,8.3-4.2,14.1-12.9,14.1
			c-12.2,0-12.9-10.7-12.9-12.7v-0.6h5.7c0,4.2,2,9,7.3,9c3.3,0,7.3-1.7,7.3-9.4c0-5.3-2.6-8.7-8.2-8.7h-2.9V221.6z"/>
		<path class="st1" d="M215.6,247.3h-25.4c0-8.5,4.8-14.2,9.8-18.6l3.7-3.1c3.7-3.1,6-5.9,6-10.9c0-3.9-1.7-8.2-6.6-8.2
			c-7,0-7.2,7.3-7.2,9.8h-5.7c0-8.6,3.6-14.5,12.9-14.5c10.5,0,12.2,8.2,12.2,12.1c0,7-2.9,10.6-8,15l-6.4,5.6
			c-2.5,2.1-4.3,4.8-5,7.8h19.5L215.6,247.3L215.6,247.3z"/>
	</g>
</g>
</svg>
